/* XPM */
static char * Z_xpm[] = {
"20 20 5 1",
" 	c #FF5353",
".	c #FF4040",
"+	c #C00000",
"@	c #FF0000",
"#	c #AD0000",
"                    ",
".                  +",
"..                ++",
"...@@@@@@@@@@@@@@+++",
"...@@@@@@@@@@@@@@+++",
"...@@@@@@@@@@@@@@+++",
"...@@@@@@@@@@@@@@+++",
"...@@@@@@@@@@@@@@+++",
"...@@@@@@@@@@@@@@+++",
"...@@@@@@@@@@@@@@+++",
"...@@@@@@@@@@@@@@+++",
"...@@@@@@@@@@@@@@+++",
"...@@@@@@@@@@@@@@+++",
"...@@@@@@@@@@@@@@+++",
"...@@@@@@@@@@@@@@+++",
"...@@@@@@@@@@@@@@+++",
"...@@@@@@@@@@@@@@+++",
"...##############+++",
"..################++",
".##################+"};
