/* XPM */
static char * tet_i_3_xpm[] = {
"16 16 140 2",
"  	c #F7FFFF",
". 	c #F1FFFF",
"+ 	c #2B475D",
"@ 	c #254963",
"# 	c #244963",
"$ 	c #28485D",
"% 	c #F5FFFF",
"& 	c #EDFFFF",
"* 	c #2B4858",
"= 	c #CFF3FF",
"- 	c #CCF5FF",
"; 	c #D0F3FF",
"> 	c #CEF4FF",
", 	c #2B485A",
"' 	c #EBFFFF",
") 	c #1A4E66",
"! 	c #AADEF4",
"~ 	c #BAEEFF",
"{ 	c #C8F7FF",
"] 	c #D0F4FF",
"^ 	c #D5F2FF",
"/ 	c #AADEF6",
"( 	c #1A4D68",
"_ 	c #0F526F",
": 	c #9FE2FC",
"< 	c #A1E2F6",
"[ 	c #B7F0FF",
"} 	c #CCF6FF",
"| 	c #D4F4FF",
"1 	c #D6F2FF",
"2 	c #D7F1FF",
"3 	c #D7F1FE",
"4 	c #D6F2FE",
"5 	c #A1E2F8",
"6 	c #A0E1FD",
"7 	c #105171",
"8 	c #0D526F",
"9 	c #9CE4FD",
"0 	c #98E4FB",
"a 	c #9DE4F6",
"b 	c #C9F7FF",
"c 	c #CBF6FF",
"d 	c #9DE4F8",
"e 	c #99E3FC",
"f 	c #9FE2FF",
"g 	c #9AE4FF",
"h 	c #96E6FD",
"i 	c #96E7FC",
"j 	c #D2F3FF",
"k 	c #9FE3F8",
"l 	c #98E6FD",
"m 	c #96E6FF",
"n 	c #9DE2FF",
"o 	c #9CE3FF",
"p 	c #95E7FD",
"q 	c #97E8FD",
"r 	c #B8F0FF",
"s 	c #C7F8FF",
"t 	c #99E7FE",
"u 	c #95E7FF",
"v 	c #0D5174",
"w 	c #99E3FF",
"x 	c #92E6FF",
"y 	c #8FE8FF",
"z 	c #93E6FF",
"A 	c #B0F2FF",
"B 	c #AFF2FF",
"C 	c #93E5FF",
"D 	c #9AE2FF",
"E 	c #0D5176",
"F 	c #09527F",
"G 	c #4394C3",
"H 	c #3B96CB",
"I 	c #3797D1",
"J 	c #3897D1",
"K 	c #3997CD",
"L 	c #3F97C5",
"M 	c #2B82AD",
"N 	c #3D98C5",
"O 	c #3897CD",
"P 	c #3B96CD",
"Q 	c #4593C4",
"R 	c #095181",
"S 	c #065284",
"T 	c #4194CA",
"U 	c #3896D6",
"V 	c #3298DA",
"W 	c #3497D8",
"X 	c #3797D4",
"Y 	c #2483B9",
"Z 	c #66C4F7",
"` 	c #3597D4",
" .	c #4293CB",
"..	c #085186",
"+.	c #065286",
"@.	c #4193CB",
"#.	c #3598D3",
"$.	c #68C2F6",
"%.	c #6BC3F5",
"&.	c #055185",
"*.	c #4293CA",
"=.	c #3896D3",
"-.	c #68C4F7",
";.	c #6CC2F3",
">.	c #6EC1F3",
",.	c #6CC2F5",
"'.	c #075085",
").	c #4293C8",
"!.	c #69C3F5",
"~.	c #4393C8",
"{.	c #134E76",
"].	c #4D90BA",
"^.	c #2F80AF",
"/.	c #6BC3F3",
"(.	c #6EC2F1",
"_.	c #70C2F1",
":.	c #6FC1F1",
"<.	c #6FC1F0",
"[.	c #70C0F1",
"}.	c #71C1F2",
"|.	c #2E80B0",
"1.	c #4D90BB",
"2.	c #134E78",
"3.	c #E9FFFF",
"4.	c #224A63",
"5.	c #7EBCE3",
"6.	c #75BFEC",
"7.	c #76BFEC",
"8.	c #76BFEA",
"9.	c #77BEEC",
"0.	c #75BFEE",
"a.	c #7DBCE5",
"b.	c #224966",
"c.	c #EAFFFF",
"d.	c #184D6F",
"e.	c #0D507B",
"f.	c #0E517C",
"g.	c #0C4F7A",
"h.	c #0D507D",
"i.	c #174D71",
"  . + @ # # @ @ # # @ @ # $ . % ",
"& * = - = ; ; ; ; ; ; = - > , ' ",
") ! ~ { ] ^ ^ ^ ^ ^ ^ ] { ~ / ( ",
"_ : < [ } | 1 2 3 4 | } [ 5 6 7 ",
"8 9 0 a [ b | 3 3 | c [ d e f 7 ",
"8 g h i a [ } j j } [ k l m n 7 ",
"_ o m p q d r s s [ d t u m n 7 ",
"v w x y y z o A B g z y y C D E ",
"F G H I J K L M M N O I I P Q R ",
"S T U V W X Y Z Z Y ` W V U  ...",
"+.@.U W #.Y $.%.%.$.Y #.W U  ...",
"&.*.=.` Y -.%.;.>.,.-.Y ` =.*.'.",
"S ).P Y -.!.;.;.;.;.%.-.Y K ~...",
"{.].^./.(._.:.<.[.<.}.(./.|.1.2.",
"3.4.5.6.7.8.7.8.9.8.9.7.0.a.b.3.",
"% c.d.e.e.e.f.g.g.f.e.e.h.i.' % "};
